<?xml version="1.0" encoding="UTF-8"?>
<svg width="32px" height="32px" enable-background="new 0 0 32 32" version="1.1" viewBox="0 0 32 32" xml:space="preserve" xmlns="http://www.w3.org/2000/svg" xmlns:cc="http://creativecommons.org/ns#" xmlns:dc="http://purl.org/dc/elements/1.1/" xmlns:rdf="http://www.w3.org/1999/02/22-rdf-syntax-ns#"><metadata><rdf:RDF><cc:Work rdf:about=""><dc:format>image/svg+xml</dc:format><dc:type rdf:resource="http://purl.org/dc/dcmitype/StillImage"/><dc:title/></cc:Work></rdf:RDF></metadata><path d="m7.5156 5.5156c-0.51195 0-1.0257 0.19366-1.416 0.58398-0.78065 0.78065-0.78065 2.0494 0 2.8301l7.0703 7.0703-7.0703 7.0703c-0.78065 0.78065-0.78065 2.0494 0 2.8301 0.78065 0.78065 2.0494 0.78065 2.8301 0l7.0703-7.0703 7.0703 7.0703c0.78065 0.78065 2.0494 0.78065 2.8301 0s0.78065-2.0494 0-2.8301l-7.0703-7.0703 7.0703-7.0703c0.78065-0.78065 0.78065-2.0494 0-2.8301s-2.0494-0.78065-2.8301 0l-7.0703 7.0703-7.0703-7.0703c-0.39032-0.39032-0.90212-0.58398-1.4141-0.58398z"/></svg>
